<?xml version="1.0" encoding="utf-8"?>
<!-- Generator: Adobe Illustrator 16.0.0, SVG Export Plug-In . SVG Version: 6.00 Build 0)  -->
<!DOCTYPE svg PUBLIC "-//W3C//DTD SVG 1.1//EN" "http://www.w3.org/Graphics/SVG/1.1/DTD/svg11.dtd">
<svg version="1.1" id="Layer_1" xmlns="http://www.w3.org/2000/svg" xmlns:xlink="http://www.w3.org/1999/xlink" x="0px" y="0px"
	 width="1199.371px" height="271.658px" viewBox="0 0 1199.371 271.658" enable-background="new 0 0 1199.371 271.658"
	 xml:space="preserve">
<g>
	<g>
		<g>
			<defs>
				<path id="SVGID_1_" d="M0.5,37.167V37.07V37.167z M159.679,37.167V37.07V37.167z M20.362,17.21h0.096H20.362z M20.458,17.21
					C9.414,17.21,0.5,26.123,0.5,37.167v212.172c0,11.045,8.914,19.958,19.958,19.958l-0.096-0.096h119.359l0.097,0.096
					c10.947,0,19.861-8.913,19.861-19.958V37.167c0-11.044-8.914-19.957-19.861-19.957H20.458z"/>
			</defs>
			<clipPath id="SVGID_2_">
				<use xlink:href="#SVGID_1_"  overflow="visible"/>
			</clipPath>
			<rect y="17.21" clip-path="url(#SVGID_2_)" fill="#DDDDDD" width="161.77" height="254.448"/>
		</g>
	</g>
</g>
<g>
	<g>
		<g>
			<defs>
				<rect id="SVGID_3_" width="1199.371" height="271.658"/>
			</defs>
			<clipPath id="SVGID_4_">
				<use xlink:href="#SVGID_3_"  overflow="visible"/>
			</clipPath>
			<path clip-path="url(#SVGID_4_)" fill="#59AFEF" d="M27.046,262.612h119.359c11.045,0,19.958-8.914,19.958-19.86l-0.096-0.097
				V30.482h0.096c0-10.948-8.913-19.862-19.958-19.862v-0.096H27.046v0.096c-10.948,0-19.861,8.914-19.861,19.862H7.089v212.173
				l0.096,0.097C7.185,253.698,16.098,262.612,27.046,262.612"/>
		</g>
	</g>
</g>
<g>
	<g>
		<g>
			<defs>
				<path id="SVGID_5_" d="M27.046,10.524v0.096c-10.948,0-19.861,8.914-19.861,19.862H7.088v212.173l0.097,0.097
					c0,10.946,8.913,19.86,19.861,19.86h119.36c11.045,0,19.957-8.914,19.957-19.86l-0.096-0.097V30.482h0.096
					c0-10.948-8.912-19.862-19.957-19.862v-0.096H27.046z"/>
			</defs>
			<clipPath id="SVGID_6_">
				<use xlink:href="#SVGID_5_"  overflow="visible"/>
			</clipPath>
			<rect x="5.926" y="9.361" clip-path="url(#SVGID_6_)" fill="#59AFEF" width="163.537" height="256.545"/>
		</g>
	</g>
</g>
<g>
	<g>
		<g>
			<defs>
				<rect id="SVGID_7_" width="1199.371" height="271.658"/>
			</defs>
			<clipPath id="SVGID_8_">
				<use xlink:href="#SVGID_7_"  overflow="visible"/>
			</clipPath>
			<path clip-path="url(#SVGID_8_)" fill="#231F20" d="M64.54,204.87h44.275l0.097,0.098c10.948,0,19.861-8.914,19.861-19.958
				V91.615v0.097c0-11.045-8.913-19.957-19.861-19.957H64.54h0.096c-11.044,0-19.957,8.912-19.957,19.957v-0.097v93.395
				c0,11.044,8.913,19.958,19.957,19.958"/>
		</g>
	</g>
</g>
<g>
	<g>
		<g>
			<defs>
				<path id="SVGID_9_" d="M53.495,122.812v-0.098V122.812z M106.684,122.812v-0.098V122.812z M73.356,102.852h0.098H73.356z
					 M73.454,102.852c-11.045,0-19.959,8.915-19.959,19.96v44.371c0,11.045,8.914,19.959,19.959,19.959l-0.098-0.098h13.371
					l0.096,0.098c10.948,0,19.861-8.914,19.861-19.959v-44.371c0-11.045-8.913-19.96-19.861-19.96H73.454z"/>
			</defs>
			<clipPath id="SVGID_10_">
				<use xlink:href="#SVGID_9_"  overflow="visible"/>
			</clipPath>
			<rect x="52.236" y="101.69" clip-path="url(#SVGID_10_)" fill="#D8D8D8" width="57.732" height="87.995"/>
		</g>
	</g>
</g>
<g>
	<g>
		<g>
			<defs>
				<rect id="SVGID_11_" width="1199.371" height="271.658"/>
			</defs>
			<clipPath id="SVGID_12_">
				<use xlink:href="#SVGID_11_"  overflow="visible"/>
			</clipPath>
			<path clip-path="url(#SVGID_12_)" fill="#59AFEF" d="M80.041,180.455h13.37c11.045,0,19.958-8.911,19.958-19.86l-0.098-0.096
				v-44.373h0.098c0-10.947-8.913-19.86-19.958-19.86h-13.37c-10.948,0-19.86,8.913-19.86,19.86h-0.098v44.373l0.098,0.096
				C60.181,171.544,69.093,180.455,80.041,180.455"/>
		</g>
	</g>
</g>
<g>
	<g>
		<g>
			<defs>
				<path id="SVGID_13_" d="M80.041,96.265c-10.948,0-19.861,8.914-19.861,19.86h-0.097v44.374l0.097,0.095
					c0,10.95,8.913,19.861,19.861,19.861h13.37c11.045,0,19.957-8.911,19.957-19.861l-0.097-0.095v-44.374h0.097
					c0-10.946-8.912-19.86-19.957-19.86H80.041z"/>
			</defs>
			<clipPath id="SVGID_14_">
				<use xlink:href="#SVGID_13_"  overflow="visible"/>
			</clipPath>
			<rect x="58.921" y="93.94" clip-path="url(#SVGID_14_)" fill="#59AFEF" width="58.129" height="90.196"/>
		</g>
	</g>
</g>
<g>
	<g>
		<g>
			<defs>
				<rect id="SVGID_15_" width="1199.371" height="271.658"/>
			</defs>
			<clipPath id="SVGID_16_">
				<use xlink:href="#SVGID_15_"  overflow="visible"/>
			</clipPath>
			
				<path clip-path="url(#SVGID_16_)" fill="none" stroke="#FFFFFF" stroke-linecap="round" stroke-linejoin="round" stroke-miterlimit="10" d="
				M46.908,10.62c-4.167,0-9.98-0.968-14.92-0.871C13.774,10.233,9.123,25.734,7.185,42.107c-3.681,31.293,2.616,65.978,0,104.44
				c-2.324,33.229-11.141,69.175-1.646,89.521c8.138,17.633,29.84,23.641,56.289,28.192c27.999,4.941,61.132,8.235,81.284-1.647
				c11.529-5.616,18.698-15.5,23.251-27.319c13.467-35.36,2.423-87.581,4.942-140.092c1.162-24.123,5.231-48.345-1.647-64.717
				C153.382-8.272,75.682-3.039,40.32,10.62"/>
		</g>
	</g>
	<g>
		<g>
			<defs>
				<rect id="SVGID_17_" width="1199.371" height="271.658"/>
			</defs>
			<clipPath id="SVGID_18_">
				<use xlink:href="#SVGID_17_"  overflow="visible"/>
			</clipPath>
			
				<path clip-path="url(#SVGID_18_)" fill="none" stroke="#FFFFFF" stroke-linecap="round" stroke-linejoin="round" stroke-miterlimit="10" d="
				M73.454,76.889c-33.521-1.26-43.598,40.206-36.428,73.049c6.491,30.033,27.514,52.896,48.053,51.347
				c19.086-1.452,37.881-23.929,43.113-52.218c3.1-16.665,1.55-35.364-4.941-48.926C113.757,80.376,93.895,71.463,73.454,76.889"/>
		</g>
	</g>
	<g>
		<g>
			<defs>
				<rect id="SVGID_19_" width="1199.371" height="271.658"/>
			</defs>
			<clipPath id="SVGID_20_">
				<use xlink:href="#SVGID_19_"  overflow="visible"/>
			</clipPath>
			
				<path clip-path="url(#SVGID_20_)" fill="none" stroke="#FFFFFF" stroke-linecap="round" stroke-linejoin="round" stroke-miterlimit="10" d="
				M73.454,116.708c-22.865,3.099-15.889,34.102-3.295,41.465C89.342,169.509,121.507,126.009,73.454,116.708"/>
		</g>
	</g>
</g>
<g enable-background="new    ">
	<path fill="#FFFFFF" d="M225.712,69.896h17.714v66.175h0.611c3.665-5.295,7.33-10.182,10.792-14.66l41.944-51.515h21.99
		l-49.682,58.233l53.55,79.002H301.66l-45.202-67.396l-13.031,15.068v52.328h-17.714V69.896z"/>
	<path fill="#FFFFFF" d="M410.797,157.043c0,36.446-25.248,52.329-49.071,52.329c-26.673,0-47.238-19.547-47.238-50.7
		c0-32.985,21.583-52.329,48.867-52.329C391.658,106.343,410.797,126.908,410.797,157.043z M332.61,158.062
		c0,21.582,12.42,37.871,29.931,37.871c17.104,0,29.931-16.085,29.931-38.279c0-16.695-8.348-37.871-29.524-37.871
		S332.61,139.329,332.61,158.062z"/>
</g>
<g enable-background="new    ">
	<path fill="#FFFFFF" d="M417.722,71.729c7.737-1.629,19.954-2.852,32.375-2.852c17.714,0,29.117,3.055,37.668,9.978
		c7.126,5.294,11.402,13.438,11.402,24.229c0,13.235-8.755,24.842-23.212,30.135v0.408c13.031,3.258,28.302,14.049,28.302,34.41
		c0,11.81-4.683,20.769-11.606,27.488c-9.57,8.755-25.044,12.827-47.442,12.827c-12.217,0-21.583-0.814-27.488-1.629V71.729z
		 M435.436,127.927h16.085c18.732,0,29.728-9.773,29.728-23.009c0-16.085-12.217-22.397-30.135-22.397
		c-8.145,0-12.828,0.611-15.678,1.222V127.927z M435.436,193.693c3.461,0.61,8.552,0.814,14.864,0.814
		c18.325,0,35.225-6.72,35.225-26.673c0-18.732-16.085-26.471-35.429-26.471h-14.66V193.693z"/>
</g>
<g enable-background="new    ">
	<path fill="#FFFFFF" d="M602.4,157.043c0,36.446-25.249,52.329-49.071,52.329c-26.673,0-47.238-19.547-47.238-50.7
		c0-32.985,21.583-52.329,48.867-52.329C583.26,106.343,602.4,126.908,602.4,157.043z M524.212,158.062
		c0,21.582,12.42,37.871,29.931,37.871c17.104,0,29.931-16.085,29.931-38.279c0-16.695-8.348-37.871-29.524-37.871
		S524.212,139.329,524.212,158.062z"/>
</g>
<g>
	<g>
		<g>
			<defs>
				<rect id="SVGID_21_" width="1199.371" height="271.658"/>
			</defs>
			<clipPath id="SVGID_22_">
				<use xlink:href="#SVGID_21_"  overflow="visible"/>
			</clipPath>
			<g clip-path="url(#SVGID_22_)">
				<g enable-background="new    ">
					<path fill="#62ACDF" d="M657.545,84.964h-41.741V69.896h101.603v15.067h-41.943v122.168h-17.918V84.964z"/>
				</g>
				<g enable-background="new    ">
					<path fill="#62ACDF" d="M791.522,157.043c0,36.446-25.248,52.329-49.071,52.329c-26.673,0-47.238-19.547-47.238-50.7
						c0-32.985,21.584-52.329,48.867-52.329C772.383,106.343,791.522,126.908,791.522,157.043z M713.335,158.062
						c0,21.582,12.421,37.871,29.931,37.871c17.104,0,29.932-16.085,29.932-38.279c0-16.695-8.348-37.871-29.523-37.871
						S713.335,139.329,713.335,158.062z"/>
				</g>
				<g enable-background="new    ">
					<path fill="#62ACDF" d="M888.037,157.043c0,36.446-25.248,52.329-49.07,52.329c-26.674,0-47.238-19.547-47.238-50.7
						c0-32.985,21.582-52.329,48.867-52.329C868.897,106.343,888.037,126.908,888.037,157.043z M809.85,158.062
						c0,21.582,12.42,37.871,29.932,37.871c17.104,0,29.931-16.085,29.931-38.279c0-16.695-8.349-37.871-29.524-37.871
						S809.85,139.329,809.85,158.062z"/>
					<path fill="#62ACDF" d="M896.795,62.566h17.918v144.565h-17.918V62.566z"/>
					<path fill="#62ACDF" d="M930.186,207.132c0.408-6.719,0.814-16.696,0.814-25.451V62.566h17.715v61.898h0.407
						c6.312-10.995,17.714-18.122,33.597-18.122c24.434,0,41.74,20.361,41.537,50.293c0,35.225-22.194,52.736-44.185,52.736
						c-14.253,0-25.655-5.498-32.985-18.529h-0.611l-0.814,16.289H930.186z M948.715,167.631c0,2.239,0.407,4.479,0.814,6.516
						c3.461,12.421,13.846,20.972,26.877,20.972c18.732,0,29.932-15.271,29.932-37.871c0-19.751-10.182-36.65-29.32-36.65
						c-12.217,0-23.619,8.348-27.285,21.99c-0.406,2.035-1.018,4.479-1.018,7.33V167.631z"/>
				</g>
				<g enable-background="new    ">
					<path fill="#62ACDF" d="M1118.529,157.043c0,36.446-25.248,52.329-49.07,52.329c-26.674,0-47.238-19.547-47.238-50.7
						c0-32.985,21.582-52.329,48.867-52.329C1099.39,106.343,1118.529,126.908,1118.529,157.043z M1040.342,158.062
						c0,21.582,12.42,37.871,29.932,37.871c17.104,0,29.931-16.085,29.931-38.279c0-16.695-8.349-37.871-29.524-37.871
						S1040.342,139.329,1040.342,158.062z"/>
				</g>
				<g enable-background="new    ">
					<path fill="#62ACDF" d="M1131.561,108.583l14.05,21.176c3.665,5.498,6.72,10.588,9.978,16.086h0.61
						c3.258-5.905,6.516-10.996,9.773-16.289l13.846-20.973h19.343l-33.596,47.646l34.614,50.903h-20.361l-14.456-22.193
						c-3.869-5.701-7.127-11.199-10.588-17.104h-0.408c-3.258,5.904-6.719,11.198-10.384,17.104l-14.253,22.193h-19.75L1145,156.839
						l-33.393-48.256H1131.561z"/>
				</g>
			</g>
		</g>
	</g>
</g>
</svg>
