<?xml version="1.0" encoding="utf-8"?>
<!-- Generator: Adobe Illustrator 16.0.0, SVG Export Plug-In . SVG Version: 6.00 Build 0)  -->
<!DOCTYPE svg PUBLIC "-//W3C//DTD SVG 1.1//EN" "http://www.w3.org/Graphics/SVG/1.1/DTD/svg11.dtd">
<svg version="1.1" id="Layer_1" xmlns="http://www.w3.org/2000/svg" xmlns:xlink="http://www.w3.org/1999/xlink" x="0px" y="0px"
	 width="1200px" height="320px" viewBox="0 0 1200 320" enable-background="new 0 0 1200 320" xml:space="preserve">
<g>
	<path fill="#FFFFFF" d="M233.708,85.892h17.714v66.175h0.611c3.665-5.294,7.33-10.181,10.792-14.661l41.944-51.514h21.99
		l-49.682,58.233l53.55,79.002h-20.972l-45.202-67.396l-13.031,15.068v52.328h-17.714V85.892z"/>
	<path fill="#FFFFFF" d="M417.572,173.038c0,36.446-25.248,52.329-49.071,52.329c-26.673,0-47.238-19.547-47.238-50.7
		c0-32.985,21.583-52.329,48.867-52.329C398.432,122.338,417.572,142.903,417.572,173.038z M339.384,174.057
		c0,21.582,12.42,37.871,29.931,37.871c17.104,0,29.931-16.085,29.931-38.279c0-16.695-8.348-37.872-29.524-37.872
		S339.384,155.324,339.384,174.057z"/>
	<path fill="#FFFFFF" d="M425.718,87.724c7.737-1.629,19.954-2.851,32.375-2.851c17.714,0,29.117,3.054,37.668,9.977
		c7.126,5.294,11.402,13.438,11.402,24.23c0,13.235-8.755,24.841-23.212,30.135v0.407c13.031,3.258,28.302,14.049,28.302,34.411
		c0,11.81-4.683,20.769-11.606,27.488c-9.57,8.755-25.044,12.827-47.442,12.827c-12.217,0-21.583-0.814-27.488-1.629V87.724z
		 M443.433,143.921h16.085c18.732,0,29.728-9.773,29.728-23.008c0-16.085-12.217-22.397-30.135-22.397
		c-8.145,0-12.828,0.611-15.678,1.222V143.921z M443.433,209.688c3.461,0.61,8.552,0.814,14.864,0.814
		c18.325,0,35.225-6.72,35.225-26.673c0-18.732-16.085-26.471-35.429-26.471h-14.66V209.688z"/>
	<path fill="#FFFFFF" d="M610.396,173.038c0,36.446-25.248,52.329-49.071,52.329c-26.673,0-47.238-19.547-47.238-50.7
		c0-32.985,21.583-52.329,48.867-52.329C591.256,122.338,610.396,142.903,610.396,173.038z M532.208,174.057
		c0,21.582,12.42,37.871,29.931,37.871c17.104,0,29.931-16.085,29.931-38.279c0-16.695-8.348-37.872-29.524-37.872
		S532.208,155.324,532.208,174.057z"/>
</g>
<g>
	<path fill="#2196F3" d="M635.65,100.959H593.91V85.892h101.603v15.067h-41.944v122.168H635.65V100.959z"/>
	<path fill="#2196F3" d="M769.629,173.038c0,36.446-25.248,52.329-49.071,52.329c-26.673,0-47.238-19.547-47.238-50.7
		c0-32.985,21.583-52.329,48.867-52.329C750.488,122.338,769.629,142.903,769.629,173.038z M691.441,174.057
		c0,21.582,12.42,37.871,29.931,37.871c17.104,0,29.931-16.085,29.931-38.279c0-16.695-8.348-37.872-29.523-37.872
		S691.441,155.324,691.441,174.057z"/>
	<path fill="#2196F3" d="M866.143,173.038c0,36.446-25.248,52.329-49.07,52.329c-26.674,0-47.238-19.547-47.238-50.7
		c0-32.985,21.583-52.329,48.867-52.329C847.004,122.338,866.143,142.903,866.143,173.038z M787.955,174.057
		c0,21.582,12.421,37.871,29.932,37.871c17.104,0,29.932-16.085,29.932-38.279c0-16.695-8.349-37.872-29.524-37.872
		S787.955,155.324,787.955,174.057z"/>
	<path fill="#2196F3" d="M873.678,78.562h17.918v144.565h-17.918V78.562z"/>
	<path fill="#2196F3" d="M905.85,223.127c0.406-6.719,0.814-16.696,0.814-25.451V78.562h17.714v61.898h0.407
		c6.312-10.995,17.715-18.122,33.596-18.122c24.434,0,41.741,20.361,41.537,50.292c0,35.225-22.193,52.736-44.184,52.736
		c-14.253,0-25.655-5.498-32.985-18.529h-0.61l-0.814,16.289H905.85z M924.378,183.626c0,2.239,0.407,4.479,0.814,6.516
		c3.462,12.421,13.846,20.972,26.877,20.972c18.732,0,29.931-15.271,29.931-37.871c0-19.751-10.18-36.651-29.32-36.651
		c-12.217,0-23.619,8.348-27.283,21.991c-0.408,2.035-1.019,4.479-1.019,7.33V183.626z"/>
	<path fill="#2196F3" d="M1096.635,173.038c0,36.446-25.248,52.329-49.071,52.329c-26.673,0-47.238-19.547-47.238-50.7
		c0-32.985,21.583-52.329,48.867-52.329C1077.494,122.338,1096.635,142.903,1096.635,173.038z M1018.447,174.057
		c0,21.582,12.42,37.871,29.931,37.871c17.104,0,29.931-16.085,29.931-38.279c0-16.695-8.348-37.872-29.523-37.872
		S1018.447,155.324,1018.447,174.057z"/>
	<path fill="#2196F3" d="M1109.667,124.578l14.05,21.176c3.664,5.498,6.719,10.588,9.977,16.086h0.611
		c3.258-5.905,6.516-10.996,9.773-16.29l13.846-20.972h19.343l-33.597,47.646l34.615,50.903h-20.361l-14.457-22.193
		c-3.869-5.701-7.127-11.199-10.588-17.104h-0.407c-3.258,5.904-6.72,11.198-10.384,17.104l-14.254,22.193h-19.75l35.021-50.293
		l-33.393-48.256H1109.667z"/>
</g>
<g>
	<path fill-rule="evenodd" clip-rule="evenodd" fill="#2196F3" d="M162.229,268.843H44.398c-11.46,0-20.751-9.291-20.751-20.751
		V60.928c0-11.461,9.291-20.752,20.751-20.752h117.831c11.461,0,20.751,9.291,20.751,20.752v187.164
		C182.98,259.552,173.69,268.843,162.229,268.843"/>
	<path fill-rule="evenodd" clip-rule="evenodd" fill="#FFFFFF" d="M125.25,221.51H82.044c-11.265,0-20.397-9.132-20.397-20.396
		v-93.207c0-11.265,9.132-20.397,20.397-20.397h43.206c11.265,0,20.397,9.132,20.397,20.397v93.207
		C145.647,212.378,136.515,221.51,125.25,221.51"/>
	<path fill-rule="evenodd" clip-rule="evenodd" fill="#2196F3" d="M110.811,196.843H96.483c-10.771,0-19.503-8.731-19.503-19.503
		v-44.994c0-10.771,8.732-19.503,19.503-19.503h14.327c10.771,0,19.503,8.732,19.503,19.503v44.994
		C130.313,188.111,121.582,196.843,110.811,196.843"/>
</g>
</svg>
