<?xml version="1.0" encoding="utf-8"?>
<!-- Generator: Adobe Illustrator 26.2.1, SVG Export Plug-In . SVG Version: 6.00 Build 0)  -->
<svg version="1.1" id="Layer_1" xmlns="http://www.w3.org/2000/svg" xmlns:xlink="http://www.w3.org/1999/xlink" x="0px" y="0px"
	 viewBox="0 0 434.4 56.9" style="enable-background:new 0 0 434.4 56.9;" xml:space="preserve">
<style type="text/css">
	.st0{fill:#FFFFFF;}
	.st1{fill:#64C0FF;}
</style>
<g>
	<g>
		<path class="st0" d="M112.8,13.7c-10.8,0-19.2,8.7-19.2,19.2c0,10.8,8.7,19.2,19.2,19.2c10.8,0,19.2-8.7,19.2-19.2
			C132.3,22.1,123.6,13.7,112.8,13.7z M112.8,44.6c-6.3,0-11.4-5.1-11.4-11.4s5.1-11.4,11.4-11.4s11.4,5.1,11.4,11.4
			C124.5,39.2,119.1,44.6,112.8,44.6z"/>
	</g>
	<g>
		<path class="st0" d="M157.8,13.7c-5.4-0.9-10.5,0.6-14.4,3.6V7.4c0-3-2.4-5.1-5.1-5.1l0,0c-1.5,0-2.4,1.2-2.4,2.4v42
			c0,3,2.4,5.1,5.1,5.1l0,0c1.5,0,2.4-1.2,2.4-2.4v-0.9c3.3,2.4,7.2,3.9,11.4,3.9c11.4,0,20.4-9.9,19.2-21.6
			C173.1,22.1,166.2,15.2,157.8,13.7z M152.4,44.3c-5.4-1.2-9-6.3-9-11.7l0,0c0-4.2,2.1-7.8,5.7-9.6c8.7-4.2,17.1,2.1,17.1,10.2
			C166.5,40.1,159.9,45.8,152.4,44.3z"/>
	</g>
	<g>
		<path class="st0" d="M196.5,13.7c-10.8,0-19.2,8.7-19.2,19.2c0,10.8,8.7,19.2,19.2,19.2s19.2-8.7,19.2-19.2
			C216,22.1,207.3,13.7,196.5,13.7z M196.5,44.6c-6.3,0-11.4-5.1-11.4-11.4s5.1-11.4,11.4-11.4c6.3,0,11.4,5.1,11.4,11.4
			C208.2,39.2,202.8,44.6,196.5,44.6z"/>
	</g>
	<g>
		<path class="st1" d="M256.8,16.1c-9.9,0-18,8.1-18,18s8.1,18,18,18c9.9,0,18-8.1,18-18S266.7,16.1,256.8,16.1z M256.8,46.7
			c-6.9,0-12.6-5.7-12.6-12.6s5.7-12.6,12.6-12.6c6.9,0,12.6,5.7,12.6,12.6S263.7,46.7,256.8,46.7z"/>
		<path class="st1" d="M295.5,16.1c-9.9,0-18,8.1-18,18s8.1,18,18,18c9.9,0,18-8.1,18-18S305.4,16.1,295.5,16.1z M295.5,46.7
			c-6.9,0-12.6-5.7-12.6-12.6s5.7-12.6,12.6-12.6c6.9,0,12.6,5.7,12.6,12.6S302.4,46.7,295.5,46.7z"/>
		<path class="st1" d="M346.8,16.1c-4.8,0-9.3,1.8-12.6,5.1V9.5c0-2.1-1.8-3.6-3.6-3.6c-0.9,0-1.8,0.9-1.8,1.8v40.8
			c0,2.1,1.8,3.6,3.6,3.6c0.9,0,1.8-0.9,1.8-1.8v-3c3.3,3,7.5,5.1,12.6,5.1c9.9,0,18-8.1,18-18S357,16.1,346.8,16.1z M346.8,46.7
			c-6.9,0-12.6-5.7-12.6-12.6s5.7-12.6,12.6-12.6c6.9,0,12.6,5.7,12.6,12.6S353.7,46.7,346.8,46.7z"/>
		<path class="st1" d="M385.8,16.1c-9.9,0-18,8.1-18,18s8.1,18,18,18c9.9,0,18-8.1,18-18S395.7,16.1,385.8,16.1z M385.8,46.7
			c-6.9,0-12.6-5.7-12.6-12.6s5.7-12.6,12.6-12.6c6.9,0,12.6,5.7,12.6,12.6S392.7,46.7,385.8,46.7z"/>
		<path class="st1" d="M319.2,5.6c-0.9,0-1.8,0.9-1.8,1.8v40.8c0,2.1,1.8,3.6,3.6,3.6c0.9,0,1.8-0.9,1.8-1.8V9.5
			C323.1,7.4,321.3,5.6,319.2,5.6z"/>
		<path class="st1" d="M420.9,34.1l10.2-15.9c0.6-0.9,0-2.4-1.2-2.4l0,0c-2.4,0-4.8,1.2-6,3.3l-6,9.6l-6-9.6c-1.2-2.1-3.6-3.3-6-3.3
			c-1.2,0-1.8,1.2-1.2,2.4l10.2,15.9L404.7,50c-0.6,0.9,0,2.4,1.2,2.4l0,0c2.4,0,4.8-1.2,6-3.3l6-9.6l6,9.6c1.2,2.1,3.6,3.3,6,3.3
			l0,0c1.2,0,1.8-1.2,1.2-2.4L420.9,34.1z"/>
		<path class="st1" d="M242.7,13.7c2.1,0,3.6-1.8,3.6-3.6c0-0.9-0.9-1.8-1.8-1.8h-27.3c-2.1,0-3.6,1.8-3.6,3.6
			c0,0.9,0.9,1.8,1.8,1.8h11.7v34.8c0,2.1,1.8,3.6,3.6,3.6c0.9,0,1.8-0.9,1.8-1.8V13.7h3.3H242.7z"/>
	</g>
	<g>
		<path class="st0" d="M96.6,49.1L75.3,27.8L93,10.1c0.9-0.9,0.3-2.4-0.9-2.4h-3.3c-2.7,0-5.4,1.2-7.2,3L65.7,26.6V12.8
			c0-3-2.4-5.1-5.1-5.1l0,0c-1.2,0-2.4,1.2-2.4,2.4v36.6c0,3,2.4,5.1,5.1,5.1l0,0c1.2,0,2.4-1.2,2.4-2.4v-7.8c0-2.4,0.9-4.5,2.4-6
			l2.1-2.1l15,15c1.8,1.8,4.5,3,7.2,3h3.3C96.9,51.5,97.5,50,96.6,49.1z"/>
	</g>
	<g>
		<path class="st1" d="M31.5,38v5.1c0,3-2.4,5.1-5.1,5.1H15.3c-3,0-5.1-2.4-5.1-5.1V14.3c0-3,2.4-5.1,5.1-5.1h11.1
			c3,0,5.1,2.4,5.1,5.1v0.6c0.9-0.3,2.1-0.6,3-0.6c1.2,0,2.4,0.3,3.6,0.6V14c0-6.6-5.4-12-12-12H15C8.4,2,3,7.4,3,14v28.8
			c0,6.6,5.4,12,12,12h11.1c6.6,0,12-5.4,12-12V29.9L31.5,38z"/>
		<path class="st1" d="M26.1,36.2l12-13.8c0.3-0.3,0.3-1.2,0-1.5l0,0c-2.1-1.8-5.4-1.5-7.2,0.6l-7.5,8.7c-0.3,0.3-0.6,0.3-0.6,0
			l-2.7-3.3c-0.6-0.6-1.5-0.6-2.1,0l0,0c-1.8,1.8-1.8,4.8-0.3,6.9l2.4,2.7C21.3,38.3,24.3,38.3,26.1,36.2z"/>
	</g>
</g>
</svg>
